<svg width="32" height="32" viewBox="0 0 32 32" fill="none" xmlns="http://www.w3.org/2000/svg">
  <!-- Circle background -->
  <circle cx="16" cy="16" r="15" fill="#3B82F6"/>
  
  <!-- People icons -->
  <circle cx="10" cy="12" r="2.5" fill="white"/>
  <circle cx="16" cy="10" r="2.5" fill="white"/>
  <circle cx="22" cy="12" r="2.5" fill="white"/>
  
  <!-- Speech bubble -->
  <path d="M8 18 Q8 16 10 16 L22 16 Q24 16 24 18 L24 22 Q24 24 22 24 L17 24 L15 26 L15 24 L10 24 Q8 24 8 22 Z" 
        fill="white"/>
  
  <!-- AI spark -->
  <path d="M16 19 L16.5 20.5 L18 20 L17 21.5 L18.5 22 L17 22 L16.5 23.5 L16 22 L14.5 22 L15.5 21.5 L14.5 20 L16 20.5 Z" 
        fill="#3B82F6"/>
</svg>
