<svg width="40" height="40" viewBox="0 0 40 40" fill="none" xmlns="http://www.w3.org/2000/svg">
  <!-- Circle background -->
  <circle cx="20" cy="20" r="18" fill="#3B82F6" stroke="#1E40AF" stroke-width="2"/>
  
  <!-- People icons (simplified heads) -->
  <circle cx="12" cy="15" r="3.5" fill="white"/>
  <circle cx="20" cy="12" r="3.5" fill="white"/>
  <circle cx="28" cy="15" r="3.5" fill="white"/>
  
  <!-- Speech bubble -->
  <path d="M10 23 Q10 20 13 20 L27 20 Q30 20 30 23 L30 28 Q30 31 27 31 L20 31 L17 34 L17 31 L13 31 Q10 31 10 28 Z" 
        fill="white" opacity="0.9"/>
  
  <!-- AI spark icon inside speech bubble -->
  <path d="M20 24 L21 26 L23 25 L22 27 L24 28 L22 28 L21 30 L20 28 L18 28 L19 27 L18 25 L20 26 Z" 
        fill="#3B82F6"/>
</svg>
